# xmcd
#
# Track frame offsets:
# 150
# 20335
# 44877
# 62442
# 82368
# 106858
# 125529
# 139622
# 155999
# 167618
# 183827
#
# Disc length: 2796 seconds
#
#
# Revision: 0
# Processed by: cddbd v1.5.1PL2 Copyright (c) Steve Scherf et al.
# Submitted via: FreeRIP 2.942 
#
DISCID=960aea0b
DTITLE=BUIKA - MI NIÑA LOLA
DYEAR=2006
DGENRE=Ambient
TTITLE0=BUIKA-01
TTITLE1=BUIKA-02
TTITLE2=BUIKA-03
TTITLE3=BUIKA-04
TTITLE4=BUIKA-05
TTITLE5=BUIKA-06
TTITLE6=BUIKA-07
TTITLE7=BUIKA-08
TTITLE8=BUIKA-09
TTITLE9=BUIKA-10
TTITLE10=BUIKA-11
EXTD=
EXTT0=
EXTT1=
EXTT2=
EXTT3=
EXTT4=
EXTT5=
EXTT6=
EXTT7=
EXTT8=
EXTT9=
EXTT10=
PLAYORDER=
